<?xml version="1.0" encoding="utf-8"?>
<!-- Generator: Adobe Illustrator 19.0.0, SVG Export Plug-In . SVG Version: 6.00 Build 0)  -->
<svg version="1.1" id="Layer_1" xmlns="http://www.w3.org/2000/svg" xmlns:xlink="http://www.w3.org/1999/xlink" x="0px" y="0px"
	 viewBox="0 0 303 360" style="enable-background:new 0 0 303 360;" xml:space="preserve">
<style type="text/css">
	.st0{fill:#FFFFFF;}
</style>
<g id="XMLID_1_">
	<path id="XMLID_46_" class="st0" d="M138.7,81h26.1v135.3c0,53.7-26.4,70.2-61.2,70.2c-9.6,0-21.3-2.1-27.9-4.8l3.9-21.3
		c5.4,2.1,13.2,3.9,21.9,3.9c23.4,0,37.2-10.5,37.2-50.1V81z"/>
</g>
<g id="XMLID_2_">
	<path id="XMLID_43_" class="st0" d="M11.2,15.4c26.5-4,58-7,92.5-7c62.5,0,107,14.5,136.5,42c30,27.5,47.5,66.5,47.5,121
		c0,55-17,100-48.5,131c-31.5,31.5-83.5,48.5-149,48.5c-31,0-57-1.5-79-4V15.4z M54.7,313.4c11,2,27,2.5,44,2.5
		c93,0,143.5-52,143.5-143c0.5-79.5-44.5-130-136.5-130c-22.5,0-39.5,2-51,4.5V313.4z"/>
</g>
<g id="XMLID_42_">
</g>
<g id="XMLID_48_">
</g>
<g id="XMLID_49_">
</g>
<g id="XMLID_50_">
</g>
<g id="XMLID_51_">
</g>
<g id="XMLID_52_">
</g>
<g id="XMLID_53_">
</g>
<g id="XMLID_54_">
</g>
<g id="XMLID_55_">
</g>
<g id="XMLID_56_">
</g>
<g id="XMLID_57_">
</g>
<g id="XMLID_58_">
</g>
<g id="XMLID_59_">
</g>
<g id="XMLID_60_">
</g>
<g id="XMLID_61_">
</g>
</svg>
